<svg width="107" height="53" viewBox="0 0 127 73" fill="none" xmlns="http://www.w3.org/2000/svg">
<path fill-rule="evenodd" clip-rule="evenodd" d="M122.713 43.4221C122.713 44.4349 123.534 45.2559 124.547 45.2559C125.56 45.2559 126.381 44.4349 126.381 43.4221C126.381 42.4093 125.56 41.5882 124.547 41.5882C123.534 41.5882 122.713 42.4093 122.713 43.4221ZM121.713 1.83398C121.713 2.84679 122.534 3.66783 123.547 3.66783C124.56 3.66783 125.381 2.84679 125.381 1.83398C125.381 0.821169 124.56 0.00012478 123.547 0.000124736C122.534 0.000124692 121.713 0.821169 121.713 1.83398ZM86.6523 1.83398C86.6523 2.84679 87.4733 3.66783 88.4862 3.66783C89.499 3.66783 90.32 2.84679 90.32 1.83398C90.32 0.821168 89.499 0.000123248 88.4862 0.000123203C87.4733 0.000123159 86.6523 0.821168 86.6523 1.83398ZM17.5307 1.83397C17.5307 2.84678 18.3517 3.66783 19.3645 3.66783C20.3773 3.66783 21.1984 2.84678 21.1984 1.83397C21.1984 0.821162 20.3773 0.000117437 19.3645 0.000117392C18.3517 0.000117348 17.5307 0.821162 17.5307 1.83397ZM54.4253 3.66783C53.4125 3.66783 52.5915 2.84678 52.5915 1.83397C52.5915 0.821164 53.4125 0.000118881 54.4253 0.000118925C55.4382 0.000118969 56.2592 0.821164 56.2592 1.83397C56.2592 2.84678 55.4382 3.66783 54.4253 3.66783ZM1.83411 3.66783C0.821297 3.66783 0.000251646 2.84678 0.00025169 1.83397C0.000251734 0.821161 0.821297 0.000116582 1.83411 0.000116626C2.84692 0.00011667 3.66796 0.821161 3.66796 1.83397C3.66796 2.84678 2.84692 3.66783 1.83411 3.66783ZM70.1219 1.83397C70.1219 2.84678 70.943 3.66783 71.9558 3.66783C72.9686 3.66783 73.7896 2.84678 73.7896 1.83397C73.7896 0.821164 72.9686 0.000119736 71.9558 0.000119691C70.943 0.000119647 70.1219 0.821164 70.1219 1.83397ZM36.8949 3.66783C35.8821 3.66783 35.0611 2.84678 35.0611 1.83397C35.0611 0.821163 35.8821 0.000118114 36.8949 0.000118159C37.9077 0.000118203 38.7288 0.821163 38.7288 1.83397C38.7288 2.84678 37.9077 3.66783 36.8949 3.66783ZM104.183 1.83398C104.183 2.84679 105.004 3.66783 106.017 3.66783C107.029 3.66783 107.85 2.84679 107.85 1.83398C107.85 0.821169 107.029 0.000124014 106.017 0.00012397C105.004 0.000123925 104.183 0.821169 104.183 1.83398ZM19.3645 45.2559C18.3517 45.2559 17.5307 44.4349 17.5307 43.4221C17.5307 42.4093 18.3517 41.5882 19.3645 41.5882C20.3773 41.5882 21.1984 42.4093 21.1984 43.4221C21.1984 44.4349 20.3773 45.2559 19.3645 45.2559ZM87.6523 43.4221C87.6523 44.4349 88.4734 45.2559 89.4862 45.2559C90.499 45.2559 91.32 44.4349 91.32 43.4221C91.32 42.4093 90.499 41.5882 89.4862 41.5882C88.4734 41.5882 87.6523 42.4093 87.6523 43.4221ZM54.4253 45.2559C53.4125 45.2559 52.5915 44.4349 52.5915 43.4221C52.5915 42.4093 53.4125 41.5882 54.4253 41.5882C55.4382 41.5882 56.2592 42.4093 56.2592 43.4221C56.2592 44.4349 55.4382 45.2559 54.4253 45.2559ZM1.8341 45.2559C0.821295 45.2559 0.000249828 44.4349 0.000249872 43.4221C0.000249916 42.4093 0.821295 41.5882 1.8341 41.5882C2.84691 41.5882 3.66796 42.4093 3.66796 43.4221C3.66796 44.4349 2.84691 45.2559 1.8341 45.2559ZM70.1219 43.4221C70.1219 44.4349 70.9429 45.2559 71.9558 45.2559C72.9686 45.2559 73.7896 44.4349 73.7896 43.4221C73.7896 42.4093 72.9686 41.5882 71.9558 41.5882C70.9429 41.5882 70.1219 42.4093 70.1219 43.4221ZM36.8949 45.2559C35.8821 45.2559 35.0611 44.4349 35.0611 43.4221C35.0611 42.4093 35.8821 41.5882 36.8949 41.5882C37.9077 41.5882 38.7288 42.4093 38.7288 43.4221C38.7288 44.4349 37.9077 45.2559 36.8949 45.2559ZM105.183 43.4221C105.183 44.4349 106.004 45.2559 107.017 45.2559C108.029 45.2559 108.85 44.4349 108.85 43.4221C108.85 42.4093 108.029 41.5882 107.017 41.5882C106.004 41.5882 105.183 42.4093 105.183 43.4221ZM19.3645 17.5305C18.3517 17.5305 17.5307 16.7095 17.5307 15.6967C17.5307 14.6839 18.3517 13.8628 19.3645 13.8628C20.3773 13.8628 21.1984 14.6839 21.1984 15.6967C21.1984 16.7095 20.3773 17.5305 19.3645 17.5305ZM87.6523 15.6967C87.6523 16.7095 88.4734 17.5305 89.4862 17.5305C90.499 17.5305 91.32 16.7095 91.32 15.6967C91.32 14.6839 90.499 13.8628 89.4862 13.8628C88.4734 13.8628 87.6523 14.6839 87.6523 15.6967ZM54.4253 17.5305C53.4125 17.5305 52.5915 16.7095 52.5915 15.6967C52.5915 14.6839 53.4125 13.8628 54.4253 13.8628C55.4382 13.8628 56.2592 14.6839 56.2592 15.6967C56.2592 16.7095 55.4382 17.5305 54.4253 17.5305ZM121.713 15.6967C121.713 16.7095 122.534 17.5305 123.547 17.5305C124.56 17.5305 125.381 16.7095 125.381 15.6967C125.381 14.6838 124.56 13.8628 123.547 13.8628C122.534 13.8628 121.713 14.6838 121.713 15.6967ZM1.83411 17.5305C0.821296 17.5305 0.00025104 16.7095 0.000251084 15.6967C0.000251128 14.6839 0.821296 13.8628 1.83411 13.8628C2.84692 13.8628 3.66796 14.6839 3.66796 15.6967C3.66796 16.7095 2.84692 17.5305 1.83411 17.5305ZM70.1219 15.6967C70.1219 16.7095 70.943 17.5305 71.9558 17.5305C72.9686 17.5305 73.7896 16.7095 73.7896 15.6967C73.7896 14.6839 72.9686 13.8628 71.9558 13.8628C70.943 13.8628 70.1219 14.6839 70.1219 15.6967ZM36.8949 17.5305C35.8821 17.5305 35.0611 16.7095 35.0611 15.6967C35.0611 14.6839 35.8821 13.8628 36.8949 13.8628C37.9077 13.8628 38.7288 14.6839 38.7288 15.6967C38.7288 16.7095 37.9077 17.5305 36.8949 17.5305ZM104.183 15.6966C104.183 16.7095 105.004 17.5305 106.017 17.5305C107.029 17.5305 107.85 16.7095 107.85 15.6966C107.85 14.6838 107.029 13.8628 106.017 13.8628C105.004 13.8628 104.183 14.6838 104.183 15.6966ZM19.3645 59.1186C18.3517 59.1186 17.5307 58.2976 17.5307 57.2848C17.5307 56.272 18.3517 55.4509 19.3645 55.4509C20.3773 55.4509 21.1984 56.272 21.1984 57.2848C21.1984 58.2976 20.3773 59.1186 19.3645 59.1186ZM87.6523 57.2848C87.6523 58.2976 88.4734 59.1187 89.4862 59.1187C90.499 59.1187 91.32 58.2976 91.32 57.2848C91.32 56.272 90.499 55.4509 89.4862 55.4509C88.4734 55.4509 87.6523 56.272 87.6523 57.2848ZM54.4253 59.1186C53.4125 59.1186 52.5915 58.2976 52.5915 57.2848C52.5915 56.272 53.4125 55.4509 54.4253 55.4509C55.4382 55.4509 56.2592 56.272 56.2592 57.2848C56.2592 58.2976 55.4382 59.1186 54.4253 59.1186ZM122.713 57.2848C122.713 58.2976 123.534 59.1187 124.547 59.1187C125.56 59.1187 126.381 58.2976 126.381 57.2848C126.381 56.272 125.56 55.4509 124.547 55.4509C123.534 55.4509 122.713 56.272 122.713 57.2848ZM1.8341 59.1186C0.821294 59.1186 0.000249222 58.2976 0.000249266 57.2848C0.00024931 56.272 0.821294 55.4509 1.8341 55.4509C2.84691 55.4509 3.66796 56.272 3.66796 57.2848C3.66796 58.2976 2.84691 59.1186 1.8341 59.1186ZM70.1219 57.2848C70.1219 58.2976 70.9429 59.1186 71.9558 59.1186C72.9686 59.1187 73.7896 58.2976 73.7896 57.2848C73.7896 56.272 72.9686 55.4509 71.9558 55.4509C70.9429 55.4509 70.1219 56.272 70.1219 57.2848ZM36.8949 59.1186C35.8821 59.1186 35.0611 58.2976 35.0611 57.2848C35.0611 56.272 35.8821 55.4509 36.8949 55.4509C37.9077 55.4509 38.7288 56.272 38.7288 57.2848C38.7288 58.2976 37.9077 59.1186 36.8949 59.1186ZM105.183 57.2848C105.183 58.2976 106.004 59.1187 107.017 59.1187C108.029 59.1187 108.85 58.2976 108.85 57.2848C108.85 56.272 108.029 55.4509 107.017 55.4509C106.004 55.4509 105.183 56.272 105.183 57.2848ZM19.3645 31.3932C18.3517 31.3932 17.5307 30.5722 17.5307 29.5594C17.5307 28.5466 18.3517 27.7255 19.3645 27.7255C20.3773 27.7255 21.1984 28.5466 21.1984 29.5594C21.1984 30.5722 20.3773 31.3932 19.3645 31.3932ZM87.6523 29.5594C87.6523 30.5722 88.4734 31.3932 89.4862 31.3932C90.499 31.3932 91.32 30.5722 91.32 29.5594C91.32 28.5466 90.499 27.7255 89.4862 27.7255C88.4734 27.7255 87.6523 28.5466 87.6523 29.5594ZM54.4253 31.3932C53.4125 31.3932 52.5915 30.5722 52.5915 29.5594C52.5915 28.5466 53.4125 27.7255 54.4253 27.7255C55.4382 27.7255 56.2592 28.5466 56.2592 29.5594C56.2592 30.5722 55.4382 31.3932 54.4253 31.3932ZM122.713 29.5594C122.713 30.5722 123.534 31.3932 124.547 31.3932C125.56 31.3932 126.381 30.5722 126.381 29.5594C126.381 28.5466 125.56 27.7255 124.547 27.7255C123.534 27.7255 122.713 28.5466 122.713 29.5594ZM1.83411 31.3932C0.821295 31.3932 0.000250434 30.5722 0.000250478 29.5594C0.000250522 28.5466 0.821295 27.7255 1.83411 27.7255C2.84691 27.7255 3.66796 28.5466 3.66796 29.5594C3.66796 30.5722 2.84691 31.3932 1.83411 31.3932ZM70.1219 29.5594C70.1219 30.5722 70.9429 31.3932 71.9558 31.3932C72.9686 31.3932 73.7896 30.5722 73.7896 29.5594C73.7896 28.5466 72.9686 27.7255 71.9558 27.7255C70.9429 27.7255 70.1219 28.5466 70.1219 29.5594ZM36.8949 31.3932C35.8821 31.3932 35.0611 30.5722 35.0611 29.5594C35.0611 28.5466 35.8821 27.7255 36.8949 27.7255C37.9077 27.7255 38.7288 28.5466 38.7288 29.5594C38.7288 30.5722 37.9077 31.3932 36.8949 31.3932ZM105.183 29.5594C105.183 30.5722 106.004 31.3932 107.017 31.3932C108.029 31.3932 108.85 30.5722 108.85 29.5594C108.85 28.5466 108.029 27.7255 107.017 27.7255C106.004 27.7255 105.183 28.5466 105.183 29.5594ZM19.3645 72.9813C18.3517 72.9813 17.5307 72.1603 17.5307 71.1475C17.5307 70.1347 18.3517 69.3136 19.3645 69.3136C20.3773 69.3136 21.1984 70.1347 21.1984 71.1475C21.1984 72.1603 20.3773 72.9813 19.3645 72.9813ZM87.6523 71.1475C87.6523 72.1603 88.4734 72.9814 89.4862 72.9814C90.499 72.9814 91.32 72.1603 91.32 71.1475C91.32 70.1347 90.499 69.3136 89.4862 69.3136C88.4734 69.3136 87.6523 70.1347 87.6523 71.1475ZM54.4253 72.9814C53.4125 72.9814 52.5915 72.1603 52.5915 71.1475C52.5915 70.1347 53.4125 69.3136 54.4253 69.3136C55.4382 69.3136 56.2592 70.1347 56.2592 71.1475C56.2592 72.1603 55.4382 72.9814 54.4253 72.9814ZM122.713 71.1475C122.713 72.1603 123.534 72.9814 124.547 72.9814C125.56 72.9814 126.381 72.1603 126.381 71.1475C126.381 70.1347 125.56 69.3136 124.547 69.3136C123.534 69.3136 122.713 70.1347 122.713 71.1475ZM1.8341 72.9813C0.821294 72.9813 0.000248616 72.1603 0.00024866 71.1475C0.000248704 70.1347 0.821294 69.3136 1.8341 69.3136C2.84691 69.3136 3.66796 70.1347 3.66796 71.1475C3.66796 72.1603 2.84691 72.9813 1.8341 72.9813ZM70.1219 71.1475C70.1219 72.1603 70.9429 72.9814 71.9558 72.9814C72.9686 72.9814 73.7896 72.1603 73.7896 71.1475C73.7896 70.1347 72.9686 69.3136 71.9558 69.3136C70.9429 69.3136 70.1219 70.1347 70.1219 71.1475ZM36.8949 72.9813C35.8821 72.9813 35.0611 72.1603 35.0611 71.1475C35.0611 70.1347 35.8821 69.3136 36.8949 69.3136C37.9077 69.3136 38.7288 70.1347 38.7288 71.1475C38.7288 72.1603 37.9077 72.9813 36.8949 72.9813ZM105.183 71.1475C105.183 72.1603 106.004 72.9814 107.017 72.9814C108.029 72.9814 108.85 72.1603 108.85 71.1475C108.85 70.1347 108.029 69.3136 107.017 69.3136C106.004 69.3136 105.183 70.1347 105.183 71.1475Z" fill="rgba(255, 255, 255, 0.37)"/>
</svg>
